<svg width="50" height="50" viewBox="0 0 50 50" fill="none" xmlns="http://www.w3.org/2000/svg">
<g id="Icon">
<rect id="Base" y="-0.000976562" width="50" height="50" rx="5" fill="url(#paint0_linear_17_1293)"/>
<path id="Vector" fill-rule="evenodd" clip-rule="evenodd" d="M38 24.999C38 32.1789 32.1799 37.999 25 37.999C22.92 37.999 20.9544 37.5102 19.2124 36.6418C18.7522 36.404 18.221 36.3425 17.7187 36.4689L14.8249 37.2437C14.5385 37.3202 14.237 37.3199 13.9507 37.243C13.6644 37.1661 13.4034 37.0152 13.1938 36.8055C12.9843 36.5958 12.8336 36.3347 12.7568 36.0483C12.6801 35.762 12.68 35.4605 12.7566 35.1741L13.5301 32.2803C13.6559 31.7783 13.594 31.2475 13.3559 30.7879C12.461 28.9896 11.9968 27.0077 12 24.999C12 17.8191 17.8201 11.999 25 11.999C32.1799 11.999 38 17.8191 38 24.999ZM25 18.824C25.2586 18.824 25.5066 18.9267 25.6894 19.1096C25.8723 19.2924 25.975 19.5404 25.975 19.799V19.812C27.3907 20.1695 28.575 21.2849 28.575 22.8319C28.575 23.0905 28.4723 23.3385 28.2894 23.5214C28.1066 23.7042 27.8586 23.8069 27.6 23.8069C27.3414 23.8069 27.0934 23.7042 26.9106 23.5214C26.7277 23.3385 26.625 23.0905 26.625 22.8319C26.625 22.3327 26.0712 21.6411 25 21.6411C23.9288 21.6411 23.375 22.3327 23.375 22.8319C23.375 23.3311 23.9288 24.024 25 24.024C26.8005 24.024 28.575 25.272 28.575 27.1661C28.575 28.7131 27.3907 29.8298 25.975 30.186V30.199C25.975 30.4576 25.8723 30.7056 25.6894 30.8885C25.5066 31.0713 25.2586 31.174 25 31.174C24.7414 31.174 24.4934 31.0713 24.3106 30.8885C24.1277 30.7056 24.025 30.4576 24.025 30.199V30.186C22.6093 29.8298 21.425 28.7131 21.425 27.1661C21.425 26.9075 21.5277 26.6595 21.7106 26.4767C21.8934 26.2938 22.1414 26.1911 22.4 26.1911C22.6586 26.1911 22.9066 26.2938 23.0894 26.4767C23.2723 26.6595 23.375 26.9075 23.375 27.1661C23.375 27.6653 23.9288 28.3569 25 28.3569C26.0712 28.3569 26.625 27.6653 26.625 27.1661C26.625 26.6669 26.0712 25.974 25 25.974C23.1995 25.974 21.425 24.726 21.425 22.8319C21.425 21.2849 22.6093 20.1695 24.025 19.812V19.799C24.025 19.5404 24.1277 19.2924 24.3106 19.1096C24.4934 18.9267 24.7414 18.824 25 18.824Z" fill="white"/>
</g>
<defs>
<linearGradient id="paint0_linear_17_1293" x1="0" y1="-0.000976562" x2="50.0385" y2="0.0376334" gradientUnits="userSpaceOnUse">
<stop stop-color="#24C79B"/>
<stop offset="1" stop-color="#4B999C"/>
</linearGradient>
</defs>
</svg>
