<svg width="50" height="50" viewBox="0 0 50 50" fill="none" xmlns="http://www.w3.org/2000/svg">
<g id="Icon">
<rect id="Base" width="50" height="50" rx="5" fill="url(#paint0_linear_17_1102)"/>
<path id="Vector" d="M36.0571 17.9632C36.0536 17.7717 35.9967 17.5847 35.8926 17.4228C35.7885 17.2608 35.6412 17.1301 35.4668 17.0447L25.4811 12.1121C25.3318 12.0384 25.1671 12 25 12C24.8329 12 24.6682 12.0384 24.5189 12.1121L14.5332 17.0447C14.3586 17.1299 14.2112 17.2606 14.1071 17.4226C14.0029 17.5846 13.9461 17.7716 13.9429 17.9632C13.8968 20.7892 14.3661 32.1827 24.6389 35.6143C24.8682 35.6912 25.1307 35.6912 25.36 35.6143C35.6339 32.1827 36.1032 20.7892 36.0571 17.9632ZM29.6232 22.8884L28.0182 24.4262C27.9437 24.4976 27.888 24.5857 27.8559 24.6829C27.8238 24.7802 27.8162 24.8837 27.8339 24.9844L28.2132 27.1553C28.2333 27.2713 28.2201 27.3905 28.1749 27.4994C28.1297 27.6084 28.0545 27.7027 27.9576 27.7719C27.8608 27.841 27.7462 27.8821 27.6269 27.8906C27.5075 27.8991 27.3881 27.8746 27.2821 27.8199L25.2989 26.7951C25.2069 26.7474 25.1045 26.7224 25.0005 26.7224C24.8965 26.7224 24.7941 26.7474 24.7021 26.7951L22.7189 27.8199C22.613 27.8746 22.4936 27.8991 22.3742 27.8906C22.2548 27.8821 22.1403 27.841 22.0434 27.7719C21.9466 27.7027 21.8713 27.6084 21.8262 27.4994C21.781 27.3905 21.7677 27.2713 21.7879 27.1553L22.1671 24.9844C22.1846 24.8837 22.177 24.7802 22.1449 24.683C22.1128 24.5858 22.0572 24.4977 21.9829 24.4262L20.3779 22.8884C20.2923 22.8062 20.2319 22.7021 20.2033 22.5879C20.1747 22.4737 20.1792 22.354 20.2162 22.2421C20.2532 22.1303 20.3212 22.0309 20.4126 21.955C20.5041 21.8792 20.6152 21.83 20.7336 21.813L22.9514 21.4959C23.0545 21.4813 23.1523 21.4422 23.2365 21.382C23.3207 21.3218 23.3887 21.2423 23.4346 21.1505L24.4268 19.1755C24.4798 19.07 24.5618 18.9812 24.6635 18.9191C24.7651 18.857 24.8824 18.8241 25.0021 18.8241C25.1218 18.8241 25.2391 18.857 25.3408 18.9191C25.4425 18.9812 25.5245 19.07 25.5775 19.1755L26.5696 21.1505C26.6157 21.2422 26.6838 21.3216 26.7679 21.3817C26.8521 21.4419 26.9499 21.4811 27.0529 21.4959L29.2707 21.813C29.3888 21.8305 29.4996 21.88 29.5906 21.9561C29.6816 22.0321 29.7492 22.1316 29.7858 22.2433C29.8225 22.3551 29.8267 22.4747 29.7979 22.5886C29.7692 22.7026 29.7087 22.8064 29.6232 22.8884ZM35.6661 28.81C34.63 30.9145 33.2104 32.8431 31.3396 34.4156L34.9846 37.9989L36.3454 34.4177L40 33.0706L35.6661 28.81ZM14.3339 28.81L10 33.0706L13.6536 34.4188L15.0143 38L18.6593 34.4167C16.7896 32.8441 15.37 30.9155 14.3339 28.81Z" fill="white"/>
</g>
<defs>
<linearGradient id="paint0_linear_17_1102" x1="0" y1="0" x2="50.0385" y2="0.03861" gradientUnits="userSpaceOnUse">
<stop stop-color="#24C79B"/>
<stop offset="1" stop-color="#4B999C"/>
</linearGradient>
</defs>
</svg>
