<svg width="50" height="50" viewBox="0 0 50 50" fill="none" xmlns="http://www.w3.org/2000/svg">
<g id="Icon">
<rect id="Base" y="-0.000976562" width="50" height="50" rx="5" fill="url(#paint0_linear_17_1299)"/>
<path id="Vector" d="M25.005 21.4591C24.0877 21.4591 23.2286 21.7962 22.5782 22.4122C21.9309 23.0283 21.5719 23.8419 21.5719 24.7108C21.5719 25.5796 21.9309 26.3933 22.5782 27.0093C23.2286 27.6225 24.0877 27.9625 25.005 27.9625C25.9223 27.9625 26.7814 27.6225 27.4318 27.0093C28.0791 26.3933 28.4381 25.5796 28.4381 24.7108C28.4381 23.8419 28.0791 23.0283 27.4318 22.4122C27.1141 22.109 26.736 21.8686 26.3194 21.705C25.9028 21.5414 25.456 21.4578 25.005 21.4591ZM37.6544 28.3025L35.6479 26.6781C35.743 26.126 35.7921 25.5622 35.7921 25.0014C35.7921 24.4405 35.743 23.8739 35.6479 23.3247L37.6544 21.7003C37.8059 21.5774 37.9144 21.4137 37.9654 21.231C38.0164 21.0483 38.0074 20.8552 37.9397 20.6774L37.9121 20.6019C37.3599 19.1393 36.5325 17.7836 35.4699 16.6005L35.4147 16.5395C35.2857 16.3958 35.1137 16.2925 34.9215 16.2432C34.7293 16.1939 34.5258 16.201 34.3379 16.2634L31.8466 17.1032C30.9262 16.3884 29.9015 15.8246 28.7909 15.4323L28.3092 12.9652C28.2729 12.7794 28.1777 12.6084 28.0363 12.475C27.8949 12.3416 27.714 12.2521 27.5177 12.2184L27.4348 12.2039C25.8395 11.9307 24.1582 11.9307 22.5629 12.2039L22.48 12.2184C22.2837 12.2521 22.1028 12.3416 21.9614 12.475C21.82 12.6084 21.7248 12.7794 21.6885 12.9652L21.2037 15.4439C20.1036 15.8394 19.0788 16.4017 18.1695 17.109L15.6599 16.2634C15.472 16.2005 15.2683 16.1932 15.076 16.2425C14.8836 16.2918 14.7117 16.3954 14.583 16.5395L14.5278 16.6005C13.4671 17.7849 12.6399 19.1402 12.0856 20.6019L12.058 20.6774C11.92 21.0407 12.0335 21.4475 12.3433 21.7003L14.3744 23.3421C14.2793 23.8884 14.2332 24.4464 14.2332 24.9985C14.2332 25.5564 14.2793 26.1143 14.3744 26.6548L12.3495 28.2966C12.1979 28.4195 12.0894 28.5832 12.0385 28.7659C11.9875 28.9487 11.9965 29.1417 12.0642 29.3195L12.0918 29.3951C12.6471 30.8567 13.4662 32.208 14.5339 33.3965L14.5891 33.4575C14.7181 33.6012 14.8901 33.7045 15.0823 33.7537C15.2746 33.803 15.4781 33.796 15.666 33.7335L18.1756 32.8879C19.0899 33.5999 20.1085 34.1636 21.2099 34.553L21.6946 37.0317C21.731 37.2176 21.8261 37.3886 21.9675 37.5219C22.1089 37.6553 22.2898 37.7448 22.4862 37.7785L22.569 37.7931C24.1801 38.0677 25.8299 38.0677 27.441 37.7931L27.5238 37.7785C27.7202 37.7448 27.9011 37.6553 28.0425 37.5219C28.1838 37.3886 28.279 37.2176 28.3154 37.0317L28.797 34.5646C29.9077 34.1694 30.9324 33.6086 31.8528 32.8937L34.344 33.7335C34.5319 33.7965 34.7355 33.8038 34.9278 33.7545C35.1202 33.7052 35.2922 33.6016 35.4209 33.4575L35.4761 33.3965C36.5437 32.2021 37.3629 30.8567 37.9182 29.3951L37.9458 29.3195C38.0777 28.9592 37.9642 28.5553 37.6544 28.3025ZM25.005 29.8193C22.026 29.8193 19.6114 27.5324 19.6114 24.7108C19.6114 21.8892 22.026 19.6023 25.005 19.6023C27.984 19.6023 30.3985 21.8892 30.3985 24.7108C30.3985 27.5324 27.984 29.8193 25.005 29.8193Z" fill="white"/>
</g>
<defs>
<linearGradient id="paint0_linear_17_1299" x1="0" y1="-0.000976562" x2="50.0385" y2="0.0376334" gradientUnits="userSpaceOnUse">
<stop stop-color="#24C79B"/>
<stop offset="1" stop-color="#4B999C"/>
</linearGradient>
</defs>
</svg>
