<svg xmlns="http://www.w3.org/2000/svg" xmlns:xlink="http://www.w3.org/1999/xlink" width="800"
    zoomAndPan="magnify" viewBox="0 0 600 599.999999" height="800"
    preserveAspectRatio="xMidYMid meet" version="1.0">
    <defs>
        <g />
        <clipPath id="b214ef3958">
            <path
                d="M 89.414062 78.96875 L 485.039062 78.96875 L 485.039062 474.59375 L 89.414062 474.59375 Z M 89.414062 78.96875 "
                clip-rule="nonzero" />
        </clipPath>
        <clipPath id="efeaa10e8e">
            <path
                d="M 287.226562 78.96875 C 177.976562 78.96875 89.414062 167.53125 89.414062 276.78125 C 89.414062 386.03125 177.976562 474.59375 287.226562 474.59375 C 396.472656 474.59375 485.039062 386.03125 485.039062 276.78125 C 485.039062 167.53125 396.472656 78.96875 287.226562 78.96875 "
                clip-rule="nonzero" />
        </clipPath>
        <clipPath id="f0a2b095f5">
            <path d="M 66 58 L 508 58 L 508 501 L 66 501 Z M 66 58 " clip-rule="nonzero" />
        </clipPath>
        <clipPath id="f06f5a09c4">
            <path
                d="M 325.6875 -41.007812 L 609.507812 297.503906 L 248.585938 600.117188 L -35.238281 261.609375 Z M 325.6875 -41.007812 "
                clip-rule="nonzero" />
        </clipPath>
        <clipPath id="a9e37f7226">
            <path
                d="M 325.6875 -41.007812 L 609.507812 297.503906 L 248.585938 600.117188 L -35.238281 261.609375 Z M 325.6875 -41.007812 "
                clip-rule="nonzero" />
        </clipPath>
        <clipPath id="57fcbcf558">
            <path
                d="M 428.984375 448.726562 C 418.128906 457.835938 406.503906 465.828125 394.113281 472.707031 C 387.929688 476.128906 381.589844 479.253906 375.097656 482.082031 C 368.605469 484.910156 361.992188 487.40625 355.257812 489.570312 C 352.277344 490.53125 349.277344 491.429688 346.261719 492.265625 C 343.246094 493.101562 340.210938 493.875 337.160156 494.582031 C 334.109375 495.289062 331.046875 495.929688 327.96875 496.507812 C 324.890625 497.082031 321.804688 497.59375 318.707031 498.039062 C 315.605469 498.484375 312.5 498.867188 309.386719 499.179688 C 306.269531 499.496094 303.148438 499.742188 300.023438 499.925781 C 296.898438 500.105469 293.773438 500.222656 290.640625 500.269531 C 287.511719 500.320312 284.382812 500.300781 281.253906 500.21875 C 278.121094 500.136719 274.996094 499.984375 271.875 499.769531 C 268.75 499.550781 265.632812 499.269531 262.523438 498.921875 C 259.410156 498.574219 256.308594 498.160156 253.214844 497.679688 C 250.125 497.199219 247.042969 496.652344 243.972656 496.042969 C 240.902344 495.433594 237.84375 494.757812 234.804688 494.015625 C 231.761719 493.273438 228.738281 492.472656 225.730469 491.601562 C 222.722656 490.734375 219.738281 489.800781 216.769531 488.804688 C 213.800781 487.808594 210.855469 486.753906 207.933594 485.632812 C 205.011719 484.511719 202.113281 483.328125 199.242188 482.085938 C 196.367188 480.84375 193.523438 479.539062 190.707031 478.175781 C 187.890625 476.8125 185.101562 475.386719 182.347656 473.90625 C 179.589844 472.421875 176.867188 470.882812 174.175781 469.285156 C 171.484375 467.6875 168.828125 466.035156 166.207031 464.324219 C 163.585938 462.613281 161 460.847656 158.457031 459.027344 C 155.910156 457.207031 153.402344 455.332031 150.9375 453.40625 C 148.46875 451.480469 146.046875 449.503906 143.664062 447.472656 C 141.28125 445.445312 138.941406 443.363281 136.648438 441.234375 C 134.355469 439.105469 132.105469 436.929688 129.902344 434.707031 C 127.703125 432.484375 125.546875 430.214844 123.441406 427.898438 C 121.335938 425.582031 119.28125 423.222656 117.277344 420.820312 C 115.269531 418.417969 113.316406 415.972656 111.414062 413.488281 C 109.511719 411.003906 107.664062 408.476562 105.871094 405.914062 C 104.074219 403.351562 102.335938 400.75 100.652344 398.109375 C 98.96875 395.472656 97.339844 392.800781 95.769531 390.09375 C 91.191406 382.1875 87.121094 374.027344 83.5625 365.617188 C 80 357.203125 76.976562 348.601562 74.488281 339.808594 C 71.996094 331.019531 70.0625 322.109375 68.683594 313.078125 C 67.304688 304.046875 66.492188 294.960938 66.246094 285.828125 C 66.042969 278.496094 66.210938 271.164062 66.746094 263.832031 C 67.8125 249.109375 70.328125 234.632812 74.292969 220.410156 L 75.054688 217.757812 C 75.308594 216.867188 75.558594 215.980469 75.839844 215.105469 L 76.667969 212.46875 C 76.9375 211.585938 77.214844 210.707031 77.519531 209.835938 C 78.695312 206.335938 79.953125 202.871094 81.28125 199.4375 C 83.960938 192.554688 86.980469 185.824219 90.34375 179.246094 C 97.089844 166.035156 105.089844 153.632812 114.347656 142.042969 C 118.964844 136.269531 123.855469 130.730469 129.027344 125.429688 C 134.195312 120.125 139.613281 115.101562 145.28125 110.359375 C 156.648438 100.828125 168.84375 92.511719 181.863281 85.410156 C 201.476562 74.722656 222.234375 67.199219 244.136719 62.832031 C 251.371094 61.386719 258.664062 60.3125 266.007812 59.601562 C 276.984375 58.53125 287.976562 58.285156 298.984375 58.863281 C 309.996094 59.441406 320.902344 60.832031 331.703125 63.046875 C 342.5 65.257812 353.078125 68.261719 363.425781 72.054688 C 373.777344 75.851562 383.785156 80.398438 393.453125 85.695312 C 406.261719 92.714844 418.246094 100.9375 429.40625 110.355469 C 431.796875 112.378906 434.144531 114.445312 436.445312 116.566406 C 438.75 118.6875 441.007812 120.851562 443.21875 123.070312 C 445.429688 125.285156 447.589844 127.546875 449.707031 129.851562 C 451.820312 132.160156 453.886719 134.511719 455.902344 136.90625 C 457.917969 139.300781 459.878906 141.734375 461.792969 144.214844 C 463.703125 146.691406 465.5625 149.207031 467.367188 151.765625 C 469.171875 154.320312 470.921875 156.914062 472.617188 159.546875 C 474.3125 162.179688 475.953125 164.84375 477.535156 167.542969 C 479.117188 170.246094 480.640625 172.976562 482.105469 175.742188 C 483.570312 178.507812 484.980469 181.304688 486.324219 184.128906 C 487.671875 186.953125 488.960938 189.804688 490.1875 192.683594 C 491.414062 195.566406 492.578125 198.46875 493.683594 201.398438 C 494.785156 204.328125 495.824219 207.277344 496.804688 210.25 C 497.78125 213.222656 498.695312 216.21875 499.546875 219.230469 C 500.398438 222.242188 501.1875 225.269531 501.910156 228.316406 C 502.632812 231.359375 503.289062 234.421875 503.882812 237.492188 C 504.476562 240.566406 505.003906 243.652344 505.464844 246.746094 C 505.929688 249.84375 506.324219 252.949219 506.65625 256.0625 C 506.984375 259.171875 507.25 262.292969 507.449219 265.414062 C 507.644531 268.539062 507.777344 271.667969 507.84375 274.796875 C 507.910156 277.925781 507.910156 281.054688 507.84375 284.183594 C 507.773438 287.316406 507.640625 290.441406 507.441406 293.566406 C 507.242188 296.691406 506.976562 299.808594 506.644531 302.921875 C 506.3125 306.035156 505.914062 309.140625 505.453125 312.234375 C 504.988281 315.332031 504.460938 318.414062 503.863281 321.488281 C 503.269531 324.5625 502.609375 327.625 501.886719 330.667969 C 501.164062 333.714844 500.375 336.742188 499.523438 339.757812 C 498.667969 342.769531 497.753906 345.761719 496.773438 348.734375 C 495.792969 351.710938 494.753906 354.660156 493.648438 357.589844 C 492.542969 360.519531 491.378906 363.425781 490.148438 366.304688 C 488.921875 369.183594 487.632812 372.039062 486.285156 374.863281 C 484.9375 377.691406 483.527344 380.484375 482.0625 383.25 C 478.738281 389.496094 475.125 395.570312 471.214844 401.476562 C 467.308594 407.378906 463.125 413.074219 458.667969 418.5625 C 454.21875 424.054688 449.488281 429.3125 444.550781 434.363281 C 439.609375 439.410156 434.398438 444.191406 428.984375 448.726562 Z M 428.984375 448.726562 C 434.386719 444.179688 439.566406 439.378906 444.515625 434.324219 C 449.453125 429.277344 454.128906 423.972656 458.53125 418.464844 C 467.367188 407.402344 475.007812 395.566406 481.453125 382.957031 C 483.058594 379.816406 484.582031 376.640625 486.027344 373.425781 C 487.476562 370.210938 488.832031 366.960938 490.105469 363.671875 C 493.292969 355.480469 495.960938 347.121094 498.109375 338.597656 C 500.253906 330.074219 501.863281 321.449219 502.933594 312.726562 C 504 304 504.523438 295.246094 504.5 286.453125 C 504.472656 277.664062 503.902344 268.914062 502.785156 260.195312 C 502.28125 256.375 501.675781 252.566406 500.964844 248.78125 C 500.253906 244.992188 499.4375 241.222656 498.519531 237.480469 C 497.601562 233.738281 496.585938 230.019531 495.464844 226.332031 C 494.34375 222.644531 493.121094 218.988281 491.800781 215.367188 C 490.480469 211.75 489.058594 208.164062 487.542969 204.621094 C 486.023438 201.078125 484.410156 197.582031 482.703125 194.125 C 480.992188 190.671875 479.191406 187.265625 477.292969 183.910156 C 475.398438 180.554688 473.410156 177.253906 471.335938 174.003906 C 469.257812 170.757812 467.09375 167.570312 464.84375 164.441406 C 462.589844 161.3125 460.257812 158.25 457.835938 155.25 C 455.417969 152.25 452.917969 149.316406 450.335938 146.453125 C 447.757812 143.589844 445.101562 140.800781 442.367188 138.082031 C 439.636719 135.363281 436.828125 132.722656 433.953125 130.160156 C 431.074219 127.59375 428.128906 125.109375 425.113281 122.707031 C 422.101562 120.304688 419.023438 117.988281 415.882812 115.753906 C 412.742188 113.519531 409.542969 111.371094 406.28125 109.3125 C 403.023438 107.253906 399.710938 105.285156 396.34375 103.410156 C 392.976562 101.53125 389.5625 99.75 386.097656 98.058594 C 382.632812 96.367188 379.125 94.773438 375.574219 93.277344 C 372.023438 91.777344 368.433594 90.378906 364.804688 89.078125 C 361.175781 87.777344 357.515625 86.574219 353.820312 85.476562 C 350.125 84.375 346.402344 83.375 342.652344 82.476562 C 338.90625 81.582031 335.132812 80.789062 331.339844 80.097656 C 327.546875 79.40625 323.738281 78.820312 319.914062 78.339844 C 316.089844 77.859375 312.253906 77.480469 308.410156 77.210938 C 304.5625 76.9375 300.710938 76.773438 296.855469 76.710938 C 293.003906 76.652344 289.148438 76.695312 285.296875 76.847656 C 281.445312 76.996094 277.597656 77.253906 273.757812 77.613281 C 269.921875 77.976562 266.09375 78.441406 262.28125 79.011719 C 258.46875 79.582031 254.671875 80.257812 250.898438 81.035156 C 247.121094 81.816406 243.367188 82.695312 239.640625 83.679688 C 235.914062 84.664062 232.214844 85.75 228.546875 86.9375 C 222.132812 89.019531 215.832031 91.398438 209.644531 94.082031 C 203.457031 96.761719 197.421875 99.738281 191.535156 103.011719 C 179.71875 109.574219 168.636719 117.195312 158.277344 125.875 C 153.105469 130.214844 148.15625 134.78125 143.429688 139.578125 C 138.703125 144.371094 134.214844 149.386719 129.960938 154.621094 C 121.441406 165.109375 114.011719 176.316406 107.667969 188.246094 C 106.265625 190.882812 104.917969 193.550781 103.628906 196.242188 C 102.34375 198.9375 101.113281 201.660156 99.9375 204.40625 C 98.765625 207.152344 97.648438 209.921875 96.59375 212.714844 C 95.539062 215.507812 94.542969 218.324219 93.605469 221.160156 C 92.671875 223.996094 91.792969 226.847656 90.980469 229.722656 C 90.164062 232.59375 89.410156 235.484375 88.714844 238.386719 C 88.023438 241.292969 87.390625 244.210938 86.824219 247.144531 C 86.253906 250.074219 85.746094 253.015625 85.304688 255.96875 C 84.859375 258.921875 84.476562 261.882812 84.160156 264.851562 C 83.839844 267.820312 83.585938 270.796875 83.390625 273.777344 C 83.199219 276.753906 83.070312 279.738281 83.003906 282.722656 C 82.9375 285.707031 82.933594 288.695312 82.996094 291.679688 C 83.054688 294.664062 83.179688 297.648438 83.367188 300.628906 C 83.554688 303.605469 83.804688 306.582031 84.117188 309.550781 C 84.429688 312.519531 84.804688 315.480469 85.246094 318.433594 C 85.683594 321.386719 86.183594 324.332031 86.746094 327.261719 C 87.3125 330.195312 87.9375 333.113281 88.625 336.019531 C 89.3125 338.925781 90.058594 341.816406 90.871094 344.6875 C 91.679688 347.5625 92.550781 350.417969 93.480469 353.253906 C 94.414062 356.089844 95.402344 358.90625 96.453125 361.699219 C 97.503906 364.496094 98.613281 367.265625 99.78125 370.011719 C 100.949219 372.761719 102.175781 375.484375 103.460938 378.179688 C 104.742188 380.875 106.082031 383.539062 107.480469 386.179688 C 108.875 388.816406 110.328125 391.425781 111.835938 394.003906 C 113.34375 396.578125 114.902344 399.125 116.519531 401.632812 C 118.132812 404.144531 119.800781 406.621094 121.523438 409.058594 C 123.242188 411.5 125.015625 413.902344 126.835938 416.265625 C 128.65625 418.632812 130.53125 420.957031 132.449219 423.242188 C 134.371094 425.527344 136.339844 427.773438 138.355469 429.972656 C 140.371094 432.175781 142.433594 434.332031 144.539062 436.449219 C 146.648438 438.5625 148.800781 440.632812 150.996094 442.652344 C 153.191406 444.675781 155.429688 446.652344 157.707031 448.582031 C 168.375 457.601562 179.832031 465.472656 192.074219 472.199219 C 204.320312 478.925781 217.113281 484.371094 230.449219 488.535156 C 243.890625 492.730469 257.613281 495.554688 271.617188 497.007812 C 285.625 498.457031 299.636719 498.503906 313.65625 497.148438 C 327.738281 495.796875 341.546875 493.050781 355.074219 488.910156 C 368.605469 484.765625 381.585938 479.3125 394.011719 472.546875 C 400.21875 469.171875 406.238281 465.492188 412.074219 461.511719 C 417.921875 457.519531 423.558594 453.257812 428.984375 448.726562 Z M 428.984375 448.726562 "
                clip-rule="nonzero" />
        </clipPath>
        <linearGradient x1="-269.133236"
            gradientTransform="matrix(0.216794, 0.258566, -0.258689, 0.216897, 314.61404, -31.61796)"
            y1="654.5" x2="1576.080201" gradientUnits="userSpaceOnUse" y2="654.5" id="24115bbe63">
            <stop stop-opacity="1" stop-color="rgb(10.198975%, 27.49939%, 35.699463%)" offset="0" />
            <stop stop-opacity="1" stop-color="rgb(10.198975%, 27.49939%, 35.699463%)" offset="0.25" />
            <stop stop-opacity="1" stop-color="rgb(10.198975%, 27.49939%, 35.699463%)"
                offset="0.375" />
            <stop stop-opacity="1" stop-color="rgb(10.198975%, 27.49939%, 35.699463%)"
                offset="0.4375" />
            <stop stop-opacity="1" stop-color="rgb(10.198975%, 27.49939%, 35.699463%)"
                offset="0.46875" />
            <stop stop-opacity="1" stop-color="rgb(10.198975%, 27.49939%, 35.699463%)"
                offset="0.484375" />
            <stop stop-opacity="1" stop-color="rgb(10.305786%, 27.835083%, 35.958862%)"
                offset="0.488281" />
            <stop stop-opacity="1" stop-color="rgb(10.412598%, 28.172302%, 36.218262%)"
                offset="0.492187" />
            <stop stop-opacity="1" stop-color="rgb(10.568237%, 28.660583%, 36.595154%)"
                offset="0.496094" />
            <stop stop-opacity="1" stop-color="rgb(10.723877%, 29.150391%, 36.973572%)" offset="0.5" />
            <stop stop-opacity="1" stop-color="rgb(10.879517%, 29.640198%, 37.35199%)"
                offset="0.503906" />
            <stop stop-opacity="1" stop-color="rgb(11.035156%, 30.130005%, 37.730408%)"
                offset="0.507812" />
            <stop stop-opacity="1" stop-color="rgb(11.18927%, 30.619812%, 38.1073%)"
                offset="0.511719" />
            <stop stop-opacity="1" stop-color="rgb(11.34491%, 31.109619%, 38.485718%)"
                offset="0.515625" />
            <stop stop-opacity="1" stop-color="rgb(11.500549%, 31.599426%, 38.86261%)"
                offset="0.519531" />
            <stop stop-opacity="1" stop-color="rgb(11.656189%, 32.089233%, 39.241028%)"
                offset="0.523438" />
            <stop stop-opacity="1" stop-color="rgb(11.811829%, 32.579041%, 39.619446%)"
                offset="0.527344" />
            <stop stop-opacity="1" stop-color="rgb(11.967468%, 33.068848%, 39.997864%)"
                offset="0.53125" />
            <stop stop-opacity="1" stop-color="rgb(12.121582%, 33.558655%, 40.374756%)"
                offset="0.535156" />
            <stop stop-opacity="1" stop-color="rgb(12.277222%, 34.048462%, 40.753174%)"
                offset="0.539062" />
            <stop stop-opacity="1" stop-color="rgb(12.432861%, 34.536743%, 41.130066%)"
                offset="0.542969" />
            <stop stop-opacity="1" stop-color="rgb(12.588501%, 35.02655%, 41.508484%)"
                offset="0.546875" />
            <stop stop-opacity="1" stop-color="rgb(12.744141%, 35.516357%, 41.886902%)"
                offset="0.550781" />
            <stop stop-opacity="1" stop-color="rgb(12.89978%, 36.006165%, 42.26532%)"
                offset="0.554688" />
            <stop stop-opacity="1" stop-color="rgb(13.05542%, 36.495972%, 42.642212%)"
                offset="0.558594" />
            <stop stop-opacity="1" stop-color="rgb(13.21106%, 36.985779%, 43.02063%)"
                offset="0.5625" />
            <stop stop-opacity="1" stop-color="rgb(13.365173%, 37.475586%, 43.399048%)"
                offset="0.566406" />
            <stop stop-opacity="1" stop-color="rgb(13.520813%, 37.965393%, 43.777466%)"
                offset="0.570312" />
            <stop stop-opacity="1" stop-color="rgb(13.676453%, 38.4552%, 44.154358%)"
                offset="0.574219" />
            <stop stop-opacity="1" stop-color="rgb(13.832092%, 38.945007%, 44.532776%)"
                offset="0.578125" />
            <stop stop-opacity="1" stop-color="rgb(13.987732%, 39.434814%, 44.909668%)"
                offset="0.582031" />
            <stop stop-opacity="1" stop-color="rgb(14.143372%, 39.924622%, 45.288086%)"
                offset="0.585937" />
            <stop stop-opacity="1" stop-color="rgb(14.299011%, 40.412903%, 45.666504%)"
                offset="0.589844" />
            <stop stop-opacity="1" stop-color="rgb(14.454651%, 40.90271%, 46.044922%)"
                offset="0.59375" />
            <stop stop-opacity="1" stop-color="rgb(14.608765%, 41.392517%, 46.421814%)"
                offset="0.597656" />
            <stop stop-opacity="1" stop-color="rgb(14.764404%, 41.882324%, 46.800232%)"
                offset="0.601562" />
            <stop stop-opacity="1" stop-color="rgb(14.920044%, 42.372131%, 47.177124%)"
                offset="0.605469" />
            <stop stop-opacity="1" stop-color="rgb(15.075684%, 42.861938%, 47.555542%)"
                offset="0.609375" />
            <stop stop-opacity="1" stop-color="rgb(15.231323%, 43.351746%, 47.93396%)"
                offset="0.613281" />
            <stop stop-opacity="1" stop-color="rgb(15.386963%, 43.841553%, 48.312378%)"
                offset="0.617188" />
            <stop stop-opacity="1" stop-color="rgb(15.542603%, 44.33136%, 48.68927%)"
                offset="0.621094" />
            <stop stop-opacity="1" stop-color="rgb(15.698242%, 44.821167%, 49.067688%)"
                offset="0.625" />
            <stop stop-opacity="1" stop-color="rgb(15.852356%, 45.310974%, 49.44458%)"
                offset="0.628906" />
            <stop stop-opacity="1" stop-color="rgb(16.007996%, 45.800781%, 49.822998%)"
                offset="0.632812" />
            <stop stop-opacity="1" stop-color="rgb(16.163635%, 46.289062%, 50.201416%)"
                offset="0.636719" />
            <stop stop-opacity="1" stop-color="rgb(16.319275%, 46.77887%, 50.579834%)"
                offset="0.640625" />
            <stop stop-opacity="1" stop-color="rgb(16.474915%, 47.268677%, 50.956726%)"
                offset="0.644531" />
            <stop stop-opacity="1" stop-color="rgb(16.630554%, 47.758484%, 51.335144%)"
                offset="0.648438" />
            <stop stop-opacity="1" stop-color="rgb(16.786194%, 48.248291%, 51.712036%)"
                offset="0.652344" />
            <stop stop-opacity="1" stop-color="rgb(16.941833%, 48.738098%, 52.090454%)"
                offset="0.65625" />
            <stop stop-opacity="1" stop-color="rgb(17.095947%, 49.227905%, 52.468872%)"
                offset="0.660156" />
            <stop stop-opacity="1" stop-color="rgb(17.251587%, 49.717712%, 52.84729%)"
                offset="0.664062" />
            <stop stop-opacity="1" stop-color="rgb(17.407227%, 50.20752%, 53.224182%)"
                offset="0.667969" />
            <stop stop-opacity="1" stop-color="rgb(17.562866%, 50.697327%, 53.6026%)"
                offset="0.671875" />
            <stop stop-opacity="1" stop-color="rgb(17.718506%, 51.187134%, 53.981018%)"
                offset="0.675781" />
            <stop stop-opacity="1" stop-color="rgb(17.874146%, 51.676941%, 54.359436%)"
                offset="0.679687" />
            <stop stop-opacity="1" stop-color="rgb(18.028259%, 52.165222%, 54.736328%)"
                offset="0.683594" />
            <stop stop-opacity="1" stop-color="rgb(18.183899%, 52.655029%, 55.114746%)"
                offset="0.6875" />
            <stop stop-opacity="1" stop-color="rgb(18.339539%, 53.144836%, 55.491638%)"
                offset="0.691406" />
            <stop stop-opacity="1" stop-color="rgb(18.495178%, 53.634644%, 55.870056%)"
                offset="0.695312" />
            <stop stop-opacity="1" stop-color="rgb(18.650818%, 54.124451%, 56.248474%)"
                offset="0.699219" />
            <stop stop-opacity="1" stop-color="rgb(18.806458%, 54.614258%, 56.626892%)"
                offset="0.703125" />
            <stop stop-opacity="1" stop-color="rgb(18.962097%, 55.104065%, 57.003784%)"
                offset="0.707031" />
            <stop stop-opacity="1" stop-color="rgb(19.117737%, 55.593872%, 57.382202%)"
                offset="0.710937" />
            <stop stop-opacity="1" stop-color="rgb(19.271851%, 56.083679%, 57.759094%)"
                offset="0.714844" />
            <stop stop-opacity="1" stop-color="rgb(19.42749%, 56.573486%, 58.137512%)"
                offset="0.71875" />
            <stop stop-opacity="1" stop-color="rgb(19.58313%, 57.063293%, 58.51593%)"
                offset="0.722656" />
            <stop stop-opacity="1" stop-color="rgb(19.73877%, 57.553101%, 58.894348%)"
                offset="0.726562" />
            <stop stop-opacity="1" stop-color="rgb(19.894409%, 58.041382%, 59.27124%)"
                offset="0.730469" />
            <stop stop-opacity="1" stop-color="rgb(20.050049%, 58.531189%, 59.649658%)"
                offset="0.734375" />
            <stop stop-opacity="1" stop-color="rgb(20.205688%, 59.020996%, 60.02655%)"
                offset="0.738281" />
            <stop stop-opacity="1" stop-color="rgb(20.361328%, 59.510803%, 60.404968%)"
                offset="0.742188" />
            <stop stop-opacity="1" stop-color="rgb(20.515442%, 60.00061%, 60.783386%)"
                offset="0.746094" />
            <stop stop-opacity="1" stop-color="rgb(20.671082%, 60.490417%, 61.161804%)"
                offset="0.75" />
            <stop stop-opacity="1" stop-color="rgb(20.826721%, 60.980225%, 61.538696%)"
                offset="0.753906" />
            <stop stop-opacity="1" stop-color="rgb(20.982361%, 61.470032%, 61.917114%)"
                offset="0.757812" />
            <stop stop-opacity="1" stop-color="rgb(21.138%, 61.959839%, 62.294006%)"
                offset="0.761719" />
            <stop stop-opacity="1" stop-color="rgb(21.29364%, 62.449646%, 62.672424%)"
                offset="0.765625" />
            <stop stop-opacity="1" stop-color="rgb(21.44928%, 62.939453%, 63.050842%)"
                offset="0.769531" />
            <stop stop-opacity="1" stop-color="rgb(21.604919%, 63.42926%, 63.42926%)"
                offset="0.773438" />
            <stop stop-opacity="1" stop-color="rgb(21.759033%, 63.917542%, 63.806152%)"
                offset="0.777344" />
            <stop stop-opacity="1" stop-color="rgb(21.914673%, 64.407349%, 64.18457%)"
                offset="0.78125" />
            <stop stop-opacity="1" stop-color="rgb(22.070312%, 64.897156%, 64.562988%)"
                offset="0.785156" />
            <stop stop-opacity="1" stop-color="rgb(22.225952%, 65.386963%, 64.941406%)"
                offset="0.789062" />
            <stop stop-opacity="1" stop-color="rgb(22.381592%, 65.87677%, 65.318298%)"
                offset="0.792969" />
            <stop stop-opacity="1" stop-color="rgb(22.537231%, 66.366577%, 65.696716%)"
                offset="0.796875" />
            <stop stop-opacity="1" stop-color="rgb(22.691345%, 66.856384%, 66.073608%)"
                offset="0.800781" />
            <stop stop-opacity="1" stop-color="rgb(22.846985%, 67.346191%, 66.452026%)"
                offset="0.804687" />
            <stop stop-opacity="1" stop-color="rgb(23.002625%, 67.835999%, 66.830444%)"
                offset="0.808594" />
            <stop stop-opacity="1" stop-color="rgb(23.158264%, 68.325806%, 67.208862%)"
                offset="0.8125" />
            <stop stop-opacity="1" stop-color="rgb(23.313904%, 68.815613%, 67.585754%)"
                offset="0.816406" />
            <stop stop-opacity="1" stop-color="rgb(23.469543%, 69.30542%, 67.964172%)"
                offset="0.820312" />
            <stop stop-opacity="1" stop-color="rgb(23.625183%, 69.793701%, 68.341064%)"
                offset="0.824219" />
            <stop stop-opacity="1" stop-color="rgb(23.780823%, 70.283508%, 68.719482%)"
                offset="0.828125" />
            <stop stop-opacity="1" stop-color="rgb(23.934937%, 70.773315%, 69.0979%)"
                offset="0.832031" />
            <stop stop-opacity="1" stop-color="rgb(24.090576%, 71.263123%, 69.476318%)"
                offset="0.835938" />
            <stop stop-opacity="1" stop-color="rgb(24.246216%, 71.75293%, 69.85321%)"
                offset="0.839844" />
            <stop stop-opacity="1" stop-color="rgb(24.401855%, 72.242737%, 70.231628%)"
                offset="0.84375" />
            <stop stop-opacity="1" stop-color="rgb(24.557495%, 72.732544%, 70.608521%)"
                offset="0.847656" />
            <stop stop-opacity="1" stop-color="rgb(24.713135%, 73.222351%, 70.986938%)"
                offset="0.851562" />
            <stop stop-opacity="1" stop-color="rgb(24.868774%, 73.712158%, 71.365356%)"
                offset="0.855469" />
            <stop stop-opacity="1" stop-color="rgb(25.024414%, 74.201965%, 71.743774%)"
                offset="0.859375" />
            <stop stop-opacity="1" stop-color="rgb(25.178528%, 74.691772%, 72.120667%)"
                offset="0.863281" />
            <stop stop-opacity="1" stop-color="rgb(25.334167%, 75.18158%, 72.499084%)"
                offset="0.867188" />
            <stop stop-opacity="1" stop-color="rgb(25.416565%, 75.439453%, 72.698975%)"
                offset="0.871094" />
            <stop stop-opacity="1" stop-color="rgb(25.498962%, 75.698853%, 72.898865%)"
                offset="0.875" />
            <stop stop-opacity="1" stop-color="rgb(25.498962%, 75.698853%, 72.898865%)" offset="1" />
        </linearGradient>
        <clipPath id="3456e844ab">
            <path
                d="M 376.832031 374.109375 L 485.039062 374.109375 L 485.039062 482.316406 L 376.832031 482.316406 Z M 376.832031 374.109375 "
                clip-rule="nonzero" />
        </clipPath>
        <clipPath id="2fc3f8223f">
            <path
                d="M 430.933594 374.109375 C 401.054688 374.109375 376.832031 398.332031 376.832031 428.214844 C 376.832031 458.09375 401.054688 482.316406 430.933594 482.316406 C 460.816406 482.316406 485.039062 458.09375 485.039062 428.214844 C 485.039062 398.332031 460.816406 374.109375 430.933594 374.109375 "
                clip-rule="nonzero" />
        </clipPath>
        <clipPath id="c8a6c2fcb1">
            <path
                d="M 376.832031 374.109375 L 484.832031 374.109375 L 484.832031 482.109375 L 376.832031 482.109375 Z M 376.832031 374.109375 "
                clip-rule="nonzero" />
        </clipPath>
        <clipPath id="1351fe18aa">
            <path
                d="M 430.832031 374.109375 C 401.007812 374.109375 376.832031 398.289062 376.832031 428.109375 C 376.832031 457.933594 401.007812 482.109375 430.832031 482.109375 C 460.65625 482.109375 484.832031 457.933594 484.832031 428.109375 C 484.832031 398.289062 460.65625 374.109375 430.832031 374.109375 "
                clip-rule="nonzero" />
        </clipPath>
        <clipPath id="64f16a55e9">
            <path d="M 400 399 L 459 399 L 459 461.402344 L 400 461.402344 Z M 400 399 "
                clip-rule="nonzero" />
        </clipPath>
    </defs>
    <g clip-path="url(#b214ef3958)">
        <g clip-path="url(#efeaa10e8e)">
            <path fill="#41c1ba"
                d="M 89.414062 78.96875 L 485.039062 78.96875 L 485.039062 474.59375 L 89.414062 474.59375 Z M 89.414062 78.96875 "
                fill-opacity="1" fill-rule="nonzero" />
        </g>
    </g>
    <g fill="#ffffff" fill-opacity="1">
        <g transform="translate(181.060921, 325.895376)">
            <g>
                <path
                    d="M 89.742188 -92.515625 L 60.289062 -28.527344 L 31.148438 -92.515625 L 9.097656 -92.515625 L 9.097656 0 L 29.449219 0 L 29.449219 -55.199219 L 54.429688 0 L 66.148438 0 L 91.28125 -55.046875 L 91.28125 0 L 111.636719 0 L 111.636719 -92.515625 Z M 89.742188 -92.515625 " />
            </g>
        </g>
        <g transform="translate(301.794087, 325.895376)">
            <g>
                <path
                    d="M 9.097656 0 L 39.628906 0 C 65.070312 0 85.886719 -20.660156 85.886719 -46.257812 C 85.886719 -71.855469 65.070312 -92.515625 39.628906 -92.515625 L 9.097656 -92.515625 Z M 29.449219 -18.039062 L 29.449219 -74.476562 L 39.472656 -74.476562 C 54.121094 -74.476562 65.53125 -62.292969 65.53125 -46.257812 C 65.53125 -30.222656 54.121094 -18.039062 39.472656 -18.039062 Z M 29.449219 -18.039062 " />
            </g>
        </g>
    </g>
    <g clip-path="url(#f0a2b095f5)">
        <g clip-path="url(#f06f5a09c4)">
            <g clip-path="url(#a9e37f7226)">
                <g clip-path="url(#57fcbcf558)">
                    <path fill="url(#24115bbe63)"
                        d="M 325.507812 -159.261719 L -151.585938 240.757812 L 248.445312 717.867188 L 725.539062 317.847656 Z M 325.507812 -159.261719 "
                        fill-rule="nonzero" />
                </g>
            </g>
        </g>
    </g>
    <g clip-path="url(#3456e844ab)">
        <g clip-path="url(#2fc3f8223f)">
            <path fill="#ffffff"
                d="M 376.832031 374.109375 L 485.039062 374.109375 L 485.039062 482.316406 L 376.832031 482.316406 Z M 376.832031 374.109375 "
                fill-opacity="1" fill-rule="nonzero" />
        </g>
    </g>
    <g clip-path="url(#c8a6c2fcb1)">
        <g clip-path="url(#1351fe18aa)">
            <path stroke-linecap="butt"
                transform="matrix(0.748619, 0, 0, 0.748619, 376.832883, 374.111255)" fill="none"
                stroke-linejoin="miter"
                d="M 72.131677 -0.00251161 C 32.292698 -0.00251161 -0.00113833 32.296543 -0.00113833 72.130304 C -0.00113833 111.969282 32.292698 144.263119 72.131677 144.263119 C 111.970656 144.263119 144.264492 111.969282 144.264492 72.130304 C 144.264492 32.296543 111.970656 -0.00251161 72.131677 -0.00251161 "
                stroke="#1a465b" stroke-width="10" stroke-opacity="1" stroke-miterlimit="4" />
        </g>
    </g>
    <g clip-path="url(#64f16a55e9)">
        <path fill="#1a465b"
            d="M 409.269531 427.613281 C 414.710938 433.113281 418.597656 438.613281 422.484375 445.6875 C 440.625 411.113281 462.648438 395.402344 457.984375 400.902344 C 443.214844 420.019531 433.109375 439.402344 423.261719 461.402344 C 417.5625 450.925781 410.304688 437.042969 401.496094 434.164062 C 398.902344 431.542969 405.121094 425.257812 409.269531 427.613281 Z M 409.269531 427.613281 "
            fill-opacity="1" fill-rule="nonzero" />
    </g>
</svg>